<svg id="Layer_1" data-name="Layer 1" xmlns="http://www.w3.org/2000/svg" viewBox="0 0 250 150"><defs><style>.cls-1{font-size:14px;font-family:Monaco, Monaco;}.cls-2{fill:none;stroke:#000;stroke-miterlimit:10;}</style></defs><title>Artboard 1</title><path d="M75.6,11.32a64,64,0,1,1-64,64,64.07,64.07,0,0,1,64-64m0-1a65,65,0,1,0,65,65,65,65,0,0,0-65-65Z"/><path d="M171.1,63.32a6.5,6.5,0,1,1-6.5,6.5,6.5,6.5,0,0,1,6.5-6.5m0-1a7.5,7.5,0,1,0,7.5,7.5,7.5,7.5,0,0,0-7.5-7.5Z"/><text class="cls-1" transform="translate(33.05 65.76)">Pages that<tspan x="16.8" y="16.8">can be</tspan><tspan x="21" y="33.6">found</tspan></text><text class="cls-1" transform="translate(164.34 25.08)">This page</text><line class="cls-2" x1="197.1" y1="32.82" x2="180.1" y2="56.82"/></svg>